<svg width="31" height="24" viewBox="0 0 31 24" fill="none" xmlns="http://www.w3.org/2000/svg">
<path fill-rule="evenodd" clip-rule="evenodd" d="M11.1054 0.5H19.4501L22.0715 4.85359H11.1531V4.85392C7.34006 4.85392 4.24894 8.02148 4.24894 11.9286C4.24894 15.7993 7.28229 18.9441 11.0462 19.0026H25.1502L20.9023 11.9291H26.2133L30.4614 19.0026H30.5102V23.3498H11.1531V23.3573C11.0172 23.3573 10.8821 23.3548 10.7475 23.3498H10.2542V23.3207C4.51494 22.8517 0 17.9303 0 11.9286C0 5.63318 4.96761 0.526378 11.1054 0.500161V0.5ZM12.7465 8.70537C12.7465 9.90764 11.7955 10.8823 10.622 10.8823C9.44892 10.8823 8.49772 9.90764 8.49772 8.70537C8.49772 7.5031 9.44876 6.52841 10.622 6.52841C11.7955 6.52841 12.7465 7.5031 12.7465 8.70537ZM10.622 16.9109C11.7955 16.9109 12.7465 15.9362 12.7465 14.7339C12.7465 13.5317 11.7955 12.557 10.622 12.557C9.44892 12.557 8.49772 13.5317 8.49772 14.7339C8.49772 15.9362 9.44876 16.9109 10.622 16.9109Z" fill="#DBD2EF"/>
</svg>
