<svg width="271" height="50" viewBox="0 0 271 50" fill="none" xmlns="http://www.w3.org/2000/svg">
<g clip-path="url(#clip0_87_443)">
<path d="M32.2461 8.10271C34.4703 2.69578 38.4679 -0.251123 44.3207 0.0153796C49.5841 0.261382 53.1717 3.18779 55.1243 8.09759C55.7547 7.92846 56.4004 7.72346 57.0616 7.59021C59.7932 7.0367 62.3557 7.53383 64.6979 9.00472C68.4648 11.3674 70.3611 14.8165 70.3867 19.2497C70.4226 25.3741 70.4123 31.4934 70.4072 37.6179C70.4072 38.525 70.5558 39.386 70.93 40.2112C71.0581 40.4982 71.1708 40.7954 71.2682 41.0927C71.5245 41.8922 71.176 42.5789 70.3406 42.6609C69.6179 42.7327 68.8646 42.6814 68.1471 42.5482C67.0144 42.3432 65.9894 41.846 65.1438 41.0363C65.0362 40.9338 64.9131 40.8415 64.7901 40.7544C64.0573 40.2368 63.0681 40.452 62.6427 41.2515C62.4941 41.5385 62.3865 41.8614 62.3352 42.1792C62.0175 44.2804 59.6497 45.9051 57.3434 45.4387C56.9949 45.367 56.6464 45.2901 56.2928 45.2491C55.1602 45.1107 54.4529 46.0076 54.8578 47.0736C54.991 47.4272 55.2114 47.7501 55.3908 48.0884C55.9802 49.2159 55.4779 50.0615 54.212 49.9898C52.8744 49.918 51.7623 49.2825 50.7373 48.4625C50.6194 48.3702 50.5015 48.278 50.3939 48.1652C49.9992 47.7501 49.5482 47.6681 49.0101 47.8372C48.6719 47.9397 48.3131 47.991 47.9646 48.032C46.791 48.1652 45.9146 47.6989 45.315 46.6892C45.0433 46.2331 44.7153 45.8385 44.1669 45.695C43.5314 45.5258 42.9677 45.6488 42.5115 46.1306C42.3424 46.3048 42.1989 46.515 42.0657 46.7148C41.3123 47.8475 40.2411 48.3549 38.9496 47.9397C37.94 47.6169 37.2225 47.8116 36.4691 48.5035C35.6337 49.2722 34.6241 49.7848 33.4761 49.9436C33.1481 49.9898 32.7842 49.9744 32.4664 49.8821C31.8053 49.6823 31.5234 48.9904 31.8156 48.3651C31.9386 48.0935 32.1282 47.8475 32.2563 47.5759C32.3947 47.2837 32.5484 46.9813 32.6048 46.6636C32.7483 45.8795 32.1692 45.2081 31.3697 45.2286C30.9648 45.2388 30.5599 45.3465 30.1602 45.4285C28.2793 45.818 26.3318 44.9775 25.4297 43.3221C25.1786 42.8659 25.0607 42.3278 24.9275 41.8153C24.6712 40.821 23.8051 40.2368 22.9441 40.5443C22.693 40.6314 22.4572 40.7954 22.2625 40.9799C20.9248 42.2561 19.2797 42.7122 17.491 42.7481C17.1938 42.7532 16.8658 42.6558 16.5942 42.5226C16.0919 42.2714 15.8972 41.7948 16.0355 41.2464C16.1022 40.985 16.1995 40.7237 16.3174 40.4777C16.7735 39.5346 16.9734 38.5558 16.9683 37.5C16.958 31.3141 16.9683 25.123 16.9734 18.9319C16.9785 13.6378 20.8275 8.80484 25.9833 7.64146C27.9769 7.19045 29.95 7.28783 31.8822 7.98483C32.0103 8.03609 32.1436 8.07196 32.2461 8.10271ZM53.3305 28.9668C53.3972 30.4274 53.2332 31.7394 52.8744 33.031C52.4593 34.5121 51.957 35.942 50.5374 36.803C50.4708 36.844 50.4144 36.9106 50.358 36.9721C50.0454 37.3258 49.907 37.7255 50.0966 38.1816C50.2863 38.6275 50.6706 38.7915 51.1165 38.812C51.8289 38.8428 52.4234 38.5558 52.9205 38.0638C53.1153 37.8741 53.2844 37.6589 53.474 37.459C53.7918 37.1208 54.1505 36.8901 54.6374 37.0798C55.1397 37.2745 55.3139 37.6845 55.3242 38.1868C55.3293 38.4994 55.3242 38.8171 55.3344 39.1298C55.3754 40.0523 55.9238 40.698 56.8258 40.8825C57.5279 41.026 58.2198 40.9338 58.7733 40.4828C59.2295 40.1087 59.6036 39.6269 59.988 39.1656C60.3877 38.6839 60.7004 38.115 61.1411 37.6794C62.2737 36.557 64.0778 36.6646 65.113 37.869C65.3898 38.1919 65.5948 38.5711 65.8869 38.8786C66.1432 39.1503 66.4455 39.4219 66.7787 39.5705C67.6089 39.9395 68.2239 39.509 68.2239 38.607C68.2291 32.1956 68.2086 25.7893 68.2444 19.3778C68.2598 16.9844 67.5372 14.8832 66.0304 13.0484C64.2469 10.8754 61.9765 9.57873 59.1321 9.50185C54.7399 9.38397 50.7526 13.3456 50.6963 17.8249C50.686 18.7423 50.7424 19.6648 50.686 20.5771C50.6501 21.1818 50.9423 21.6021 51.2395 22.1402C51.4958 21.5303 51.916 21.31 52.5003 21.3817C53.0845 21.4535 53.3305 21.8378 53.4177 22.3811C53.4997 22.3709 53.5509 22.376 53.6022 22.3555C54.2223 22.1402 54.8373 21.925 55.4523 21.7046C56.0314 21.4945 56.5439 21.6328 56.7746 22.0787C57.0308 22.5759 56.8566 23.114 56.3082 23.442C56.0776 23.5804 55.8213 23.7187 55.5599 23.77C54.3555 24.0057 53.1409 24.1954 51.9314 24.4311C51.6085 24.4926 51.26 24.6105 51.0038 24.8104C50.5066 25.1896 50.4861 25.7534 50.973 26.1378C51.3164 26.4043 51.7469 26.6195 52.1723 26.7066C53.679 27.0193 55.1909 27.0142 56.6823 26.5939C56.9693 26.5119 57.2666 26.4196 57.5587 26.4043C58.3018 26.3581 58.8195 27.1525 58.43 27.7829C58.2455 28.0853 57.9072 28.3723 57.5741 28.485C56.9078 28.7105 56.2006 28.8745 55.4984 28.9514C54.8219 29.0283 54.0942 28.9668 53.3305 28.9668ZM36.1565 22.0992C36.3512 21.6533 36.6382 21.2741 36.669 20.8692C36.7407 19.9416 36.7049 19.0088 36.6895 18.0761C36.6434 15.7083 35.7824 13.6839 34.1218 11.9978C30.3242 8.13346 25.0607 9.08672 21.955 12.3565C20.0228 14.3911 19.0901 16.8255 19.1157 19.6597C19.1618 24.631 19.1413 29.5972 19.1464 34.5685C19.1464 35.9932 19.1413 37.418 19.1516 38.8428C19.1567 39.4731 19.5052 39.7653 20.1304 39.6935C20.6635 39.6269 21.0786 39.3553 21.4015 38.9401C21.6218 38.6583 21.8063 38.3559 22.0216 38.074C22.6263 37.2796 23.4105 36.8645 24.4304 36.9311C25.522 37.0029 26.2908 37.5769 26.8904 38.4379C27.1876 38.8633 27.4541 39.3143 27.777 39.7192C28.2742 40.3495 28.8943 40.8159 29.7143 40.9235C31.1852 41.1132 32.1026 40.1548 32.0206 38.9863C32.0001 38.6736 32.0103 38.3559 32.0257 38.0433C32.0462 37.5923 32.2614 37.254 32.6817 37.0849C33.102 36.9209 33.4915 37.0182 33.8195 37.3309C33.9988 37.5 34.1321 37.7204 34.3217 37.869C34.6958 38.1611 35.0648 38.484 35.4902 38.6736C36.2282 38.9965 36.956 38.7761 37.2327 38.2431C37.5146 37.6999 37.2225 37.0746 36.5665 36.5672C36.177 36.2649 35.8131 35.8856 35.5517 35.4654C34.7676 34.2046 34.3268 32.8106 34.1577 31.3397C34.0706 30.5863 34.0603 29.8227 34.0091 29.0283C33.8502 29.0283 33.6913 29.0232 33.5273 29.0283C32.3844 29.0488 31.2518 28.9668 30.1602 28.6132C29.7604 28.485 29.3709 28.239 29.0634 27.952C28.761 27.6804 28.7508 27.2653 28.9353 26.8809C29.1198 26.4965 29.4529 26.3684 29.8527 26.4043C30.0423 26.4196 30.2319 26.4555 30.4164 26.5119C31.5593 26.8553 32.7227 27.0039 33.9066 26.8758C34.6036 26.7989 35.3057 26.6451 35.9771 26.4299C36.4025 26.2915 36.7151 25.9174 36.669 25.4151C36.6229 24.9231 36.2539 24.672 35.8285 24.5029C35.726 24.4619 35.6184 24.4414 35.5107 24.426C35.0648 24.3696 34.6087 24.3491 34.168 24.262C33.2352 24.0724 32.2973 23.8827 31.3799 23.6214C31.0929 23.5394 30.8264 23.2729 30.6214 23.032C30.3754 22.7399 30.3549 22.3709 30.5753 22.0377C30.7957 21.6995 31.1288 21.5355 31.5286 21.6072C31.8053 21.6585 32.0667 21.7917 32.3332 21.8891C32.8406 22.0634 33.348 22.2376 33.8656 22.417C34.2038 21.1255 35.4595 21.0383 36.1565 22.0992ZM48.595 19.2241C48.595 18.5271 48.5796 17.9121 48.6001 17.2971C48.6206 16.8204 48.6462 16.3335 48.7436 15.8723C49.2971 13.2841 50.6194 11.1675 52.7258 9.56335C53.0538 9.31222 53.0999 9.08672 52.9718 8.70747C52.5105 7.32883 51.7315 6.15519 50.7116 5.13531C48.5027 2.92641 45.8377 1.78352 42.7268 2.15253C38.6011 2.63941 35.849 4.99693 34.3781 8.87147C34.2705 9.15335 34.3268 9.3071 34.5677 9.48135C35.9259 10.4602 36.9406 11.7466 37.6991 13.2226C38.4166 14.6167 38.8266 16.0927 38.801 17.6763C38.7908 18.1837 38.801 18.6962 38.801 19.2292C42.1015 17.2868 45.3252 17.2868 48.595 19.2241ZM49.8506 23.9904C48.6104 21.5713 46.7295 20.0851 44.0183 19.9467C41.2918 19.8135 39.2418 21.0691 37.8324 23.3959C37.5966 23.7854 37.5864 24.0416 37.9503 24.4004C38.8625 25.3075 38.7139 26.8758 37.7145 27.6343C37.161 28.0545 37.1559 28.0545 37.3301 28.7259C37.3711 28.8848 37.4172 29.0437 37.4787 29.1923C38.8215 32.7183 43.1829 34.4403 46.586 32.7645C48.4412 31.8522 49.6712 30.4018 50.1427 28.3518C50.1991 28.0955 50.2094 27.911 49.9172 27.747C49.3074 27.3985 48.9127 26.8655 48.8307 26.148C48.7129 25.246 49.1024 24.5644 49.8506 23.9904Z" fill="#DBD2EF"/>
<path d="M57.4206 19.6802C56.206 19.6956 55.3194 18.8346 55.3962 17.7071C55.427 17.2714 55.6269 16.9998 55.96 16.9588C56.3649 16.9127 56.6263 17.1228 56.739 17.4816C56.8364 17.8044 57.0055 17.9787 57.3438 17.9736C57.7025 17.9633 58.0203 17.8813 58.174 17.5021C58.3175 17.1484 58.5225 16.8665 58.9633 16.9537C59.3118 17.0203 59.486 17.3175 59.486 17.8198C59.4809 18.9114 58.6507 19.6648 57.4206 19.6802Z" fill="#DBD2EF"/>
<path d="M61.3517 15.4725C62.0077 15.4725 62.5458 16.0209 62.5458 16.6821C62.5458 17.2868 61.9615 17.8454 61.3363 17.8454C60.6957 17.8454 60.1883 17.3073 60.1934 16.6411C60.1934 15.9594 60.6803 15.4674 61.3517 15.4725Z" fill="#DBD2EF"/>
<path d="M53.479 17.7891C52.8793 17.7942 52.3515 17.2561 52.3361 16.6257C52.3258 15.9902 52.8588 15.4367 53.4943 15.4367C54.1452 15.4367 54.6731 15.9799 54.6782 16.6513C54.6885 17.2714 54.1401 17.7839 53.479 17.7891Z" fill="#DBD2EF"/>
<path d="M30.2674 19.6751C29.268 19.67 28.4121 18.8141 28.4121 17.8096C28.4121 17.4457 28.5095 17.1074 28.8887 16.9844C29.2834 16.8563 29.5652 17.0511 29.7856 17.3791C30.0419 17.7583 30.5288 17.7481 30.7645 17.3534C30.9336 17.0716 31.1438 16.8819 31.4923 16.9588C31.8664 17.0408 32.015 17.3278 32.0663 17.6763C32.2149 18.6808 31.3129 19.6802 30.2674 19.6751Z" fill="#DBD2EF"/>
<path d="M34.0094 17.7891C33.3841 17.7891 32.8357 17.2356 32.8409 16.6001C32.846 15.9799 33.3892 15.4315 33.9889 15.4367C34.6244 15.4418 35.183 15.985 35.1881 16.6052C35.1933 17.2099 34.6244 17.7839 34.0094 17.7891Z" fill="#DBD2EF"/>
<path d="M26.2296 17.7993C25.5633 17.7993 25.0662 17.2919 25.0713 16.6257C25.0765 15.9902 25.589 15.4725 26.2142 15.4777C26.8497 15.4828 27.4032 16.0363 27.3879 16.6564C27.3725 17.2868 26.8497 17.7993 26.2296 17.7993Z" fill="#DBD2EF"/>
<path d="M45.6224 11.9055C45.6224 12.0695 45.6275 12.2335 45.6224 12.3975C45.607 13.2688 45.074 13.9299 44.2284 14.1451C43.3264 14.3706 42.3834 14.0068 42.0092 13.2483C41.6249 12.4744 41.7222 11.639 41.8401 10.8395C41.917 10.3167 42.5833 10.2296 42.9779 10.6345C43.4545 11.1265 43.9106 11.1419 44.3873 10.655C44.6076 10.4295 44.8844 10.2706 45.1509 10.4346C45.3508 10.5576 45.5199 10.8241 45.5865 11.0547C45.6583 11.3212 45.6019 11.6236 45.6019 11.9106C45.607 11.9055 45.6173 11.9055 45.6224 11.9055Z" fill="#DBD2EF"/>
<path d="M39.6471 9.05597C40.3133 9.05597 40.8105 9.5531 40.8105 10.2194C40.8105 10.8651 40.2928 11.3776 39.6368 11.3879C39.0116 11.3981 38.4939 10.8549 38.4991 10.1937C38.4991 9.55822 39.0064 9.05597 39.6471 9.05597Z" fill="#DBD2EF"/>
<path d="M47.698 9.05597C48.3437 9.06109 48.846 9.58385 48.8511 10.2501C48.8511 10.8805 48.3335 11.3879 47.6928 11.3827C47.042 11.3776 46.5397 10.8241 46.55 10.1374C46.5602 9.50697 47.0471 9.05084 47.698 9.05597Z" fill="#DBD2EF"/>
<path d="M43.3874 27.4857C42.0396 27.501 41.0145 26.6861 40.8454 25.4715C40.707 24.4824 41.2503 23.5599 42.3522 23.032C42.6853 22.8731 42.8134 22.7091 42.7981 22.335C42.7776 21.7661 43.1056 21.4688 43.6488 21.4637C44.2228 21.4637 44.5765 21.761 44.5611 22.3247C44.5508 22.7501 44.72 22.8987 45.0941 23.032C45.4682 23.1652 45.8321 23.3959 46.1242 23.6624C46.483 23.9904 46.4983 24.4516 46.2677 24.7796C45.991 25.1743 45.5297 25.3178 45.0685 25.1025C44.7968 24.9795 44.556 24.7899 44.2997 24.6361C43.8077 24.3491 43.3157 24.3491 42.9672 24.6874C42.8288 24.8206 42.6699 25.082 42.7109 25.2306C42.7724 25.4305 42.9877 25.6611 43.1824 25.7278C43.5002 25.8303 43.8538 25.8046 44.1972 25.8303C45.1197 25.902 45.8577 26.2864 46.2985 27.1218C46.9135 28.2954 46.3754 29.7099 45.0787 30.2276C44.6738 30.3916 44.515 30.5658 44.5662 30.9861C44.6175 31.4012 44.392 31.6728 44.0229 31.8009C43.6488 31.9342 43.2593 31.8983 43.0133 31.5703C42.8698 31.3807 42.8032 31.0988 42.7981 30.8528C42.7878 30.5504 42.7212 30.4172 42.4086 30.3096C41.9883 30.1661 41.5834 29.9457 41.2298 29.674C40.789 29.3409 40.7429 28.7567 41.035 28.3518C41.322 27.9623 41.8858 27.8854 42.3624 28.2032C42.7929 28.4902 43.1978 28.8387 43.7667 28.7823C43.8743 28.772 43.9871 28.7669 44.0896 28.7362C44.4073 28.6285 44.6892 28.4543 44.6585 28.0802C44.6328 27.7265 44.3458 27.5882 44.0332 27.5318C43.8231 27.5113 43.6027 27.5062 43.3874 27.4857Z" fill="#DBD2EF"/>
</g>
<path d="M100.751 44.45C97.4839 44.45 94.6339 43.9167 92.2006 42.85C89.7673 41.75 87.7506 40.2833 86.1506 38.45C84.5839 36.6167 83.4173 34.5833 82.6506 32.35C81.8839 30.1167 81.5006 27.8833 81.5006 25.65V24.55C81.5006 22.25 81.8839 20 82.6506 17.8C83.4173 15.6 84.5673 13.6 86.1006 11.8C87.6673 10 89.6006 8.56667 91.9006 7.5C94.2339 6.43333 96.9173 5.9 99.9506 5.9C103.251 5.9 106.167 6.51666 108.701 7.75C111.234 8.95 113.267 10.6333 114.801 12.8C116.334 14.9333 117.217 17.4167 117.451 20.25H109.251C109.051 18.9167 108.517 17.75 107.651 16.75C106.817 15.75 105.734 14.9667 104.401 14.4C103.101 13.8333 101.617 13.55 99.9506 13.55C98.3506 13.55 96.9173 13.8333 95.6506 14.4C94.4173 14.9667 93.3506 15.7667 92.4506 16.8C91.5839 17.8333 90.9173 19.0667 90.4506 20.5C90.0173 21.9 89.8006 23.45 89.8006 25.15C89.8006 26.9167 90.0339 28.5333 90.5006 30C91.0006 31.4333 91.7173 32.6833 92.6506 33.75C93.5839 34.7833 94.7339 35.5833 96.1006 36.15C97.5006 36.7167 99.0506 37 100.751 37C103.017 37 104.984 36.5333 106.651 35.6C108.317 34.6667 109.517 33.4333 110.251 31.9L109.251 37.5V28.8H116.801V36.6C115.234 39.1333 113.067 41.0833 110.301 42.45C107.567 43.7833 104.384 44.45 100.751 44.45ZM99.7006 30.4V24.5H119.801V30.4H99.7006ZM148.701 43.5V7H156.901V43.5H148.701ZM125.101 43.5V7H133.301V43.5H125.101ZM131.851 28.75V21.55H150.151V28.75H131.851ZM182.591 44.45C179.291 44.45 176.408 43.8833 173.941 42.75C171.508 41.5833 169.491 40.0667 167.891 38.2C166.291 36.3 165.091 34.25 164.291 32.05C163.525 29.85 163.141 27.7333 163.141 25.7V24.6C163.141 22.3333 163.541 20.1 164.341 17.9C165.175 15.6667 166.408 13.65 168.041 11.85C169.675 10.05 171.708 8.61666 174.141 7.55C176.575 6.45 179.391 5.9 182.591 5.9C185.791 5.9 188.608 6.45 191.041 7.55C193.475 8.61666 195.508 10.05 197.141 11.85C198.775 13.65 200.008 15.6667 200.841 17.9C201.675 20.1 202.091 22.3333 202.091 24.6V25.7C202.091 27.7333 201.691 29.85 200.891 32.05C200.091 34.25 198.891 36.3 197.291 38.2C195.691 40.0667 193.658 41.5833 191.191 42.75C188.758 43.8833 185.891 44.45 182.591 44.45ZM182.591 36.8C184.325 36.8 185.875 36.5 187.241 35.9C188.641 35.3 189.825 34.4667 190.791 33.4C191.791 32.3333 192.541 31.1 193.041 29.7C193.541 28.3 193.791 26.8 193.791 25.2C193.791 23.5 193.525 21.95 192.991 20.55C192.491 19.1167 191.741 17.8833 190.741 16.85C189.775 15.7833 188.608 14.9667 187.241 14.4C185.875 13.8333 184.325 13.55 182.591 13.55C180.858 13.55 179.308 13.8333 177.941 14.4C176.575 14.9667 175.391 15.7833 174.391 16.85C173.425 17.8833 172.691 19.1167 172.191 20.55C171.691 21.95 171.441 23.5 171.441 25.2C171.441 26.8 171.691 28.3 172.191 29.7C172.691 31.1 173.425 32.3333 174.391 33.4C175.391 34.4667 176.575 35.3 177.941 35.9C179.308 36.5 180.858 36.8 182.591 36.8ZM225.154 43.5V35.55H224.554V26.15C224.554 24.1833 224.037 22.6833 223.004 21.65C221.971 20.5833 220.371 20.05 218.204 20.05C217.204 20.05 216.187 20.0667 215.154 20.1C214.154 20.1333 213.187 20.1833 212.254 20.25C211.354 20.2833 210.554 20.3333 209.854 20.4V17.1C210.587 17.0333 211.337 16.9667 212.104 16.9C212.871 16.8333 213.654 16.8 214.454 16.8C215.287 16.7667 216.087 16.75 216.854 16.75C219.554 16.75 221.721 17.0833 223.354 17.75C225.021 18.4167 226.237 19.4667 227.004 20.9C227.771 22.3 228.154 24.1667 228.154 26.5V43.5H225.154ZM216.204 44.2C214.337 44.2 212.687 43.8667 211.254 43.2C209.821 42.5333 208.704 41.5667 207.904 40.3C207.137 39.0333 206.754 37.5 206.754 35.7C206.754 33.9333 207.154 32.4333 207.954 31.2C208.787 29.9667 209.971 29.0333 211.504 28.4C213.071 27.7333 214.954 27.4 217.154 27.4H224.904V30.25H216.904C214.804 30.25 213.187 30.7667 212.054 31.8C210.954 32.8 210.404 34.1167 210.404 35.75C210.404 37.4167 210.987 38.75 212.154 39.75C213.321 40.7167 214.904 41.2 216.904 41.2C218.137 41.2 219.321 40.9833 220.454 40.55C221.587 40.0833 222.537 39.3167 223.304 38.25C224.071 37.15 224.487 35.65 224.554 33.75L225.654 35.3C225.521 37.2667 225.054 38.9167 224.254 40.25C223.454 41.55 222.371 42.5333 221.004 43.2C219.637 43.8667 218.037 44.2 216.204 44.2ZM247.121 43.8C245.288 43.8 243.704 43.5333 242.371 43C241.038 42.4667 240.004 41.5667 239.271 40.3C238.538 39 238.171 37.2667 238.171 35.1V8.7H241.771V35.65C241.771 37.1833 242.188 38.3667 243.021 39.2C243.854 40 245.038 40.4 246.571 40.4H251.321V43.8H247.121ZM233.421 19.9V17.05H251.321V19.9H233.421Z" fill="#DBD2EF"/>
<defs>
<clipPath id="clip0_87_443">
<rect width="55.3506" height="50" fill="white" transform="translate(16)"/>
</clipPath>
</defs>
</svg>
