<svg width="264" height="50" viewBox="0 0 264 50" fill="none" xmlns="http://www.w3.org/2000/svg">
<g clip-path="url(#clip0_87_398)">
<path d="M32.2466 8.10274C34.4708 2.69581 38.4684 -0.251093 44.3212 0.0154101C49.5846 0.261413 53.1721 3.18782 55.1248 8.09762C55.7552 7.92849 56.4009 7.72349 57.0621 7.59024C59.7937 7.03673 62.3562 7.53386 64.6984 9.00475C68.4653 11.3674 70.3616 14.8166 70.3872 19.2497C70.4231 25.3742 70.4128 31.4935 70.4077 37.6179C70.4077 38.525 70.5563 39.3861 70.9304 40.2112C71.0586 40.4982 71.1713 40.7954 71.2687 41.0927C71.525 41.8922 71.1764 42.579 70.3411 42.661C69.6184 42.7327 68.8651 42.6815 68.1475 42.5482C67.0149 42.3432 65.9899 41.8461 65.1443 41.0363C65.0366 40.9338 64.9136 40.8416 64.7906 40.7544C64.0578 40.2368 63.0686 40.4521 62.6432 41.2516C62.4946 41.5386 62.387 41.8615 62.3357 42.1792C62.018 44.2805 59.6502 45.9051 57.3439 45.4387C56.9954 45.367 56.6469 45.2901 56.2933 45.2491C55.1607 45.1107 54.4534 46.0076 54.8583 47.0736C54.9915 47.4273 55.2119 47.7501 55.3913 48.0884C55.9807 49.2159 55.4784 50.0615 54.2125 49.9898C52.8749 49.918 51.7628 49.2825 50.7377 48.4625C50.6199 48.3703 50.502 48.278 50.3944 48.1653C49.9997 47.7501 49.5487 47.6681 49.0106 47.8373C48.6723 47.9398 48.3136 47.991 47.9651 48.032C46.7915 48.1653 45.9151 47.6989 45.3154 46.6893C45.0438 46.2331 44.7158 45.8385 44.1674 45.695C43.5319 45.5259 42.9682 45.6489 42.512 46.1306C42.3429 46.3049 42.1994 46.515 42.0662 46.7149C41.3128 47.8475 40.2416 48.3549 38.9501 47.9398C37.9405 47.6169 37.223 47.8116 36.4696 48.5035C35.6342 49.2723 34.6246 49.7848 33.4766 49.9437C33.1486 49.9898 32.7847 49.9744 32.4669 49.8822C31.8058 49.6823 31.5239 48.9904 31.8161 48.3651C31.9391 48.0935 32.1287 47.8475 32.2568 47.5759C32.3952 47.2838 32.5489 46.9814 32.6053 46.6636C32.7488 45.8795 32.1697 45.2081 31.3702 45.2286C30.9653 45.2389 30.5604 45.3465 30.1607 45.4285C28.2798 45.818 26.3322 44.9775 25.4302 43.3221C25.1791 42.866 25.0612 42.3278 24.928 41.8153C24.6717 40.8211 23.8056 40.2368 22.9446 40.5443C22.6935 40.6314 22.4577 40.7954 22.263 40.9799C20.9253 42.2561 19.2802 42.7122 17.4915 42.7481C17.1943 42.7532 16.8663 42.6558 16.5946 42.5226C16.0924 42.2715 15.8976 41.7948 16.036 41.2464C16.1026 40.9851 16.2 40.7237 16.3179 40.4777C16.774 39.5347 16.9739 38.5558 16.9688 37.5C16.9585 31.3141 16.9688 25.123 16.9739 18.932C16.979 13.6378 20.8279 8.80487 25.9837 7.64149C27.9774 7.19048 29.9505 7.28786 31.8827 7.98487C32.0108 8.03612 32.1441 8.07199 32.2466 8.10274ZM53.331 28.9668C53.3976 30.4275 53.2336 31.7395 52.8749 33.031C52.4598 34.5121 51.9575 35.942 50.5379 36.803C50.4712 36.844 50.4149 36.9107 50.3585 36.9722C50.0459 37.3258 49.9075 37.7255 50.0971 38.1817C50.2867 38.6275 50.6711 38.7915 51.117 38.812C51.8294 38.8428 52.4239 38.5558 52.921 38.0638C53.1158 37.8742 53.2849 37.6589 53.4745 37.459C53.7923 37.1208 54.151 36.8902 54.6379 37.0798C55.1402 37.2745 55.3144 37.6845 55.3247 38.1868C55.3298 38.4994 55.3247 38.8172 55.3349 39.1298C55.3759 40.0523 55.9243 40.6981 56.8263 40.8826C57.5284 41.0261 58.2203 40.9338 58.7738 40.4828C59.23 40.1087 59.6041 39.6269 59.9885 39.1657C60.3882 38.6839 60.7008 38.115 61.1416 37.6794C62.2742 36.557 64.0783 36.6647 65.1135 37.869C65.3903 38.1919 65.5953 38.5712 65.8874 38.8787C66.1436 39.1503 66.446 39.4219 66.7792 39.5706C67.6094 39.9396 68.2244 39.5091 68.2244 38.607C68.2295 32.1956 68.209 25.7893 68.2449 19.3779C68.2603 16.9845 67.5377 14.8832 66.0309 13.0484C64.2474 10.8754 61.977 9.57876 59.1326 9.50188C54.7404 9.384 50.7531 13.3457 50.6967 17.825C50.6865 18.7423 50.7429 19.6649 50.6865 20.5771C50.6506 21.1819 50.9427 21.6021 51.24 22.1403C51.4962 21.5304 51.9165 21.31 52.5008 21.3818C53.085 21.4535 53.331 21.8379 53.4181 22.3811C53.5001 22.3709 53.5514 22.376 53.6026 22.3555C54.2228 22.1403 54.8378 21.925 55.4528 21.7046C56.0319 21.4945 56.5444 21.6329 56.7751 22.0788C57.0313 22.5759 56.8571 23.114 56.3087 23.442C56.078 23.5804 55.8218 23.7188 55.5604 23.77C54.356 24.0058 53.1414 24.1954 51.9319 24.4312C51.609 24.4927 51.2605 24.6105 51.0042 24.8104C50.5071 25.1897 50.4866 25.7534 50.9735 26.1378C51.3169 26.4043 51.7474 26.6195 52.1728 26.7067C53.6795 27.0193 55.1914 27.0142 56.6828 26.5939C56.9698 26.5119 57.2671 26.4197 57.5592 26.4043C58.3023 26.3582 58.82 27.1526 58.4304 27.7829C58.2459 28.0853 57.9077 28.3723 57.5746 28.4851C56.9083 28.7106 56.201 28.8746 55.4989 28.9515C54.8224 29.0283 54.0947 28.9668 53.331 28.9668ZM36.157 22.0993C36.3517 21.6534 36.6387 21.2741 36.6695 20.8692C36.7412 19.9416 36.7054 19.0089 36.69 18.0761C36.6439 15.7083 35.7828 13.6839 34.1223 11.9978C30.3247 8.13349 25.0612 9.08675 21.9555 12.3565C20.0233 14.3912 19.0905 16.8256 19.1162 19.6597C19.1623 24.631 19.1418 29.5972 19.1469 34.5685C19.1469 35.9933 19.1418 37.418 19.152 38.8428C19.1572 39.4732 19.5057 39.7653 20.1309 39.6936C20.6639 39.6269 21.0791 39.3553 21.4019 38.9402C21.6223 38.6583 21.8068 38.3559 22.0221 38.074C22.6268 37.2797 23.411 36.8645 24.4309 36.9312C25.5225 37.0029 26.2912 37.5769 26.8909 38.4379C27.1881 38.8633 27.4546 39.3143 27.7775 39.7192C28.2746 40.3496 28.8948 40.8159 29.7148 40.9236C31.1857 41.1132 32.1031 40.1548 32.0211 38.9863C32.0006 38.6737 32.0108 38.3559 32.0262 38.0433C32.0467 37.5923 32.2619 37.254 32.6822 37.0849C33.1024 36.9209 33.4919 37.0183 33.8199 37.3309C33.9993 37.5 34.1326 37.7204 34.3222 37.869C34.6963 38.1612 35.0653 38.484 35.4907 38.6737C36.2287 38.9965 36.9565 38.7762 37.2332 38.2432C37.5151 37.6999 37.223 37.0747 36.567 36.5673C36.1775 36.2649 35.8136 35.8856 35.5522 35.4654C34.7681 34.2046 34.3273 32.8106 34.1582 31.3397C34.0711 30.5863 34.0608 29.8227 34.0096 29.0283C33.8507 29.0283 33.6918 29.0232 33.5278 29.0283C32.3849 29.0488 31.2523 28.9668 30.1607 28.6132C29.7609 28.4851 29.3714 28.2391 29.0639 27.9521C28.7615 27.6804 28.7513 27.2653 28.9358 26.8809C29.1203 26.4965 29.4534 26.3684 29.8532 26.4043C30.0428 26.4197 30.2324 26.4555 30.4169 26.5119C31.5598 26.8553 32.7232 27.0039 33.9071 26.8758C34.6041 26.7989 35.3062 26.6452 35.9776 26.4299C36.403 26.2915 36.7156 25.9174 36.6695 25.4152C36.6234 24.9232 36.2543 24.672 35.829 24.5029C35.7265 24.4619 35.6188 24.4414 35.5112 24.426C35.0653 24.3697 34.6092 24.3492 34.1685 24.262C33.2357 24.0724 32.2978 23.8828 31.3804 23.6214C31.0934 23.5394 30.8269 23.2729 30.6219 23.032C30.3759 22.7399 30.3554 22.3709 30.5758 22.0378C30.7962 21.6995 31.1293 21.5355 31.529 21.6073C31.8058 21.6585 32.0672 21.7918 32.3337 21.8891C32.8411 22.0634 33.3484 22.2376 33.8661 22.417C34.2043 21.1255 35.46 21.0384 36.157 22.0993ZM48.5955 19.2241C48.5955 18.5271 48.5801 17.9121 48.6006 17.2971C48.6211 16.8205 48.6467 16.3336 48.7441 15.8723C49.2976 13.2842 50.6199 11.1675 52.7263 9.56338C53.0543 9.31225 53.1004 9.08675 52.9723 8.7075C52.511 7.32886 51.732 6.15522 50.7121 5.13534C48.5032 2.92644 45.8382 1.78355 42.7273 2.15256C38.6016 2.63944 35.8495 4.99696 34.3786 8.8715C34.271 9.15338 34.3273 9.30713 34.5682 9.48138C35.9263 10.4603 36.9411 11.7467 37.6996 13.2227C38.4171 14.6167 38.8271 16.0927 38.8015 17.6763C38.7912 18.1837 38.8015 18.6962 38.8015 19.2292C42.102 17.2868 45.3257 17.2868 48.5955 19.2241ZM49.8511 23.9904C48.6108 21.5714 46.73 20.0851 44.0188 19.9467C41.2923 19.8135 39.2423 21.0691 37.8329 23.3959C37.5971 23.7854 37.5869 24.0417 37.9507 24.4004C38.863 25.3075 38.7144 26.8758 37.715 27.6343C37.1615 28.0546 37.1564 28.0546 37.3306 28.7259C37.3716 28.8848 37.4177 29.0437 37.4792 29.1923C38.822 32.7184 43.1834 34.4404 46.5865 32.7645C48.4417 31.8522 49.6717 30.4018 50.1432 28.3518C50.1996 28.0956 50.2099 27.9111 49.9177 27.7471C49.3079 27.3986 48.9132 26.8656 48.8312 26.148C48.7133 25.246 49.1029 24.5644 49.8511 23.9904Z" fill="#DBD2EF"/>
<path d="M57.4206 19.6802C56.206 19.6956 55.3194 18.8346 55.3962 17.7071C55.427 17.2715 55.6269 16.9998 55.96 16.9588C56.3649 16.9127 56.6263 17.1228 56.739 17.4816C56.8364 17.8045 57.0055 17.9787 57.3438 17.9736C57.7025 17.9633 58.0203 17.8813 58.174 17.5021C58.3175 17.1485 58.5225 16.8666 58.9633 16.9537C59.3118 17.0203 59.486 17.3176 59.486 17.8198C59.4809 18.9115 58.6507 19.6649 57.4206 19.6802Z" fill="#DBD2EF"/>
<path d="M61.3517 15.4726C62.0077 15.4726 62.5458 16.021 62.5458 16.6821C62.5458 17.2868 61.9615 17.8455 61.3363 17.8455C60.6957 17.8455 60.1883 17.3073 60.1934 16.6411C60.1934 15.9595 60.6803 15.4674 61.3517 15.4726Z" fill="#DBD2EF"/>
<path d="M53.4795 17.789C52.8798 17.7942 52.3519 17.256 52.3366 16.6257C52.3263 15.9902 52.8593 15.4366 53.4948 15.4366C54.1457 15.4366 54.6736 15.9799 54.6787 16.6513C54.689 17.2714 54.1406 17.7839 53.4795 17.789Z" fill="#DBD2EF"/>
<path d="M30.2684 19.6751C29.269 19.67 28.4131 18.8141 28.4131 17.8096C28.4131 17.4457 28.5105 17.1075 28.8897 16.9845C29.2843 16.8563 29.5662 17.0511 29.7866 17.3791C30.0429 17.7584 30.5297 17.7481 30.7655 17.3535C30.9346 17.0716 31.1447 16.882 31.4932 16.9588C31.8674 17.0408 32.016 17.3278 32.0672 17.6764C32.2159 18.6809 31.3139 19.6802 30.2684 19.6751Z" fill="#DBD2EF"/>
<path d="M34.0094 17.7891C33.3841 17.7891 32.8357 17.2356 32.8409 16.6001C32.846 15.9799 33.3892 15.4316 33.9889 15.4367C34.6244 15.4418 35.183 15.9851 35.1881 16.6052C35.1933 17.2099 34.6244 17.784 34.0094 17.7891Z" fill="#DBD2EF"/>
<path d="M26.2296 17.7993C25.5633 17.7993 25.0662 17.292 25.0713 16.6257C25.0765 15.9902 25.589 15.4726 26.2142 15.4777C26.8497 15.4828 27.4032 16.0363 27.3879 16.6565C27.3725 17.2868 26.8497 17.7993 26.2296 17.7993Z" fill="#DBD2EF"/>
<path d="M45.6229 11.9056C45.6229 12.0696 45.628 12.2336 45.6229 12.3976C45.6075 13.2688 45.0745 13.93 44.2289 14.1452C43.3269 14.3707 42.3839 14.0068 42.0097 13.2483C41.6254 12.4744 41.7227 11.6391 41.8406 10.8395C41.9175 10.3168 42.5837 10.2297 42.9784 10.6345C43.455 11.1265 43.9111 11.1419 44.3878 10.655C44.6081 10.4295 44.8849 10.2707 45.1514 10.4347C45.3513 10.5577 45.5204 10.8242 45.587 11.0548C45.6588 11.3213 45.6024 11.6237 45.6024 11.9107C45.6075 11.9056 45.6178 11.9056 45.6229 11.9056Z" fill="#DBD2EF"/>
<path d="M39.6471 9.05603C40.3133 9.05603 40.8105 9.55316 40.8105 10.2194C40.8105 10.8652 40.2928 11.3777 39.6368 11.3879C39.0116 11.3982 38.4939 10.8549 38.4991 10.1938C38.4991 9.55829 39.0064 9.05603 39.6471 9.05603Z" fill="#DBD2EF"/>
<path d="M47.6985 9.05595C48.3442 9.06108 48.8465 9.58383 48.8516 10.2501C48.8516 10.8805 48.334 11.3878 47.6933 11.3827C47.0425 11.3776 46.5402 10.8241 46.5504 10.1373C46.5607 9.50696 47.0476 9.05083 47.6985 9.05595Z" fill="#DBD2EF"/>
<path d="M43.3884 27.4857C42.0405 27.5011 41.0155 26.6862 40.8464 25.4715C40.708 24.4824 41.2513 23.5599 42.3532 23.032C42.6863 22.8731 42.8144 22.7091 42.799 22.335C42.7785 21.7661 43.1065 21.4689 43.6498 21.4637C44.2238 21.4637 44.5774 21.761 44.5621 22.3248C44.5518 22.7501 44.7209 22.8988 45.0951 23.032C45.4692 23.1653 45.8331 23.3959 46.1252 23.6624C46.484 23.9904 46.4993 24.4517 46.2687 24.7797C45.9919 25.1743 45.5307 25.3178 45.0694 25.1025C44.7978 24.9795 44.5569 24.7899 44.3007 24.6362C43.8087 24.3492 43.3167 24.3492 42.9682 24.6874C42.8298 24.8207 42.6709 25.082 42.7119 25.2307C42.7734 25.4305 42.9887 25.6612 43.1834 25.7278C43.5012 25.8303 43.8548 25.8047 44.1982 25.8303C45.1207 25.902 45.8587 26.2864 46.2995 27.1218C46.9145 28.2954 46.3763 29.71 45.0797 30.2276C44.6748 30.3916 44.5159 30.5658 44.5672 30.9861C44.6184 31.4012 44.3929 31.6728 44.0239 31.801C43.6498 31.9342 43.2603 31.8984 43.0143 31.5703C42.8708 31.3807 42.8042 31.0988 42.799 30.8528C42.7888 30.5505 42.7222 30.4172 42.4095 30.3096C41.9893 30.1661 41.5844 29.9457 41.2308 29.6741C40.79 29.3409 40.7439 28.7567 41.036 28.3518C41.323 27.9623 41.8868 27.8854 42.3634 28.2032C42.7939 28.4902 43.1988 28.8387 43.7677 28.7823C43.8753 28.7721 43.9881 28.7669 44.0906 28.7362C44.4083 28.6286 44.6902 28.4543 44.6594 28.0802C44.6338 27.7266 44.3468 27.5882 44.0342 27.5318C43.8241 27.5113 43.6037 27.5062 43.3884 27.4857Z" fill="#DBD2EF"/>
</g>
<path d="M87.8506 30.15V26.8H96.3506C98.3173 26.8 99.9173 26.4333 101.151 25.7C102.384 24.9333 103.301 23.9333 103.901 22.7C104.501 21.4333 104.801 20.0333 104.801 18.5C104.801 16.9333 104.501 15.5333 103.901 14.3C103.301 13.0333 102.384 12.0333 101.151 11.3C99.9173 10.5667 98.3173 10.2 96.3506 10.2H87.8506V6.85H95.7006C98.6339 6.85 101.051 7.33333 102.951 8.3C104.884 9.26667 106.317 10.6 107.251 12.3C108.217 14 108.701 15.95 108.701 18.15V18.85C108.701 21.0167 108.217 22.9667 107.251 24.7C106.317 26.4 104.884 27.7333 102.951 28.7C101.051 29.6667 98.6339 30.15 95.7006 30.15H87.8506ZM85.0506 43.5V6.85H88.8506V43.5H85.0506ZM131.502 43.5V35.55H130.902V26.15C130.902 24.1833 130.385 22.6833 129.352 21.65C128.318 20.5833 126.718 20.05 124.552 20.05C123.552 20.05 122.535 20.0667 121.502 20.1C120.502 20.1333 119.535 20.1833 118.602 20.25C117.702 20.2833 116.902 20.3333 116.202 20.4V17.1C116.935 17.0333 117.685 16.9667 118.452 16.9C119.218 16.8333 120.002 16.8 120.802 16.8C121.635 16.7667 122.435 16.75 123.202 16.75C125.902 16.75 128.068 17.0833 129.702 17.75C131.368 18.4167 132.585 19.4667 133.352 20.9C134.118 22.3 134.502 24.1667 134.502 26.5V43.5H131.502ZM122.552 44.2C120.685 44.2 119.035 43.8667 117.602 43.2C116.168 42.5333 115.052 41.5667 114.252 40.3C113.485 39.0333 113.102 37.5 113.102 35.7C113.102 33.9333 113.502 32.4333 114.302 31.2C115.135 29.9667 116.318 29.0333 117.852 28.4C119.418 27.7333 121.302 27.4 123.502 27.4H131.252V30.25H123.252C121.152 30.25 119.535 30.7667 118.402 31.8C117.302 32.8 116.752 34.1167 116.752 35.75C116.752 37.4167 117.335 38.75 118.502 39.75C119.668 40.7167 121.252 41.2 123.252 41.2C124.485 41.2 125.668 40.9833 126.802 40.55C127.935 40.0833 128.885 39.3167 129.652 38.25C130.418 37.15 130.835 35.65 130.902 33.75L132.002 35.3C131.868 37.2667 131.402 38.9167 130.602 40.25C129.802 41.55 128.718 42.5333 127.352 43.2C125.985 43.8667 124.385 44.2 122.552 44.2ZM160.419 44.45C157.152 44.45 154.302 43.9167 151.869 42.85C149.435 41.75 147.419 40.2833 145.819 38.45C144.252 36.6167 143.085 34.5833 142.319 32.35C141.552 30.1167 141.169 27.8833 141.169 25.65V24.55C141.169 22.25 141.552 20 142.319 17.8C143.085 15.6 144.235 13.6 145.769 11.8C147.335 10 149.269 8.56667 151.569 7.5C153.902 6.43333 156.585 5.9 159.619 5.9C162.919 5.9 165.835 6.51666 168.369 7.75C170.902 8.95 172.935 10.6333 174.469 12.8C176.002 14.9333 176.885 17.4167 177.119 20.25H168.919C168.719 18.9167 168.185 17.75 167.319 16.75C166.485 15.75 165.402 14.9667 164.069 14.4C162.769 13.8333 161.285 13.55 159.619 13.55C158.019 13.55 156.585 13.8333 155.319 14.4C154.085 14.9667 153.019 15.7667 152.119 16.8C151.252 17.8333 150.585 19.0667 150.119 20.5C149.685 21.9 149.469 23.45 149.469 25.15C149.469 26.9167 149.702 28.5333 150.169 30C150.669 31.4333 151.385 32.6833 152.319 33.75C153.252 34.7833 154.402 35.5833 155.769 36.15C157.169 36.7167 158.719 37 160.419 37C162.685 37 164.652 36.5333 166.319 35.6C167.985 34.6667 169.185 33.4333 169.919 31.9L168.919 37.5V28.8H176.469V36.6C174.902 39.1333 172.735 41.0833 169.969 42.45C167.235 43.7833 164.052 44.45 160.419 44.45ZM159.369 30.4V24.5H179.469V30.4H159.369ZM184.319 43.5V7H192.319V28.05H191.119C191.119 25.2833 191.469 22.95 192.169 21.05C192.869 19.15 193.902 17.7167 195.269 16.75C196.636 15.75 198.352 15.25 200.419 15.25H200.769C203.802 15.25 206.119 16.3333 207.719 18.5C209.319 20.6333 210.119 23.7667 210.119 27.9V43.5H202.119V27.4C202.119 25.9 201.669 24.7 200.769 23.8C199.902 22.8667 198.752 22.4 197.319 22.4C195.819 22.4 194.602 22.8833 193.669 23.85C192.769 24.8167 192.319 26.1 192.319 27.7V43.5H184.319ZM230.286 44.45C227.886 44.45 225.753 44.0833 223.886 43.35C222.019 42.5833 220.436 41.55 219.136 40.25C217.869 38.95 216.903 37.4667 216.236 35.8C215.569 34.1 215.236 32.3167 215.236 30.45V29.3C215.236 27.4 215.569 25.6 216.236 23.9C216.936 22.1667 217.936 20.65 219.236 19.35C220.569 18.05 222.169 17.0333 224.036 16.3C225.903 15.5333 227.986 15.15 230.286 15.15C232.653 15.15 234.753 15.5333 236.586 16.3C238.453 17.0333 240.036 18.05 241.336 19.35C242.636 20.65 243.636 22.1667 244.336 23.9C245.036 25.6 245.386 27.4 245.386 29.3V30.45C245.386 32.3167 245.053 34.1 244.386 35.8C243.719 37.4667 242.736 38.95 241.436 40.25C240.169 41.55 238.603 42.5833 236.736 43.35C234.869 44.0833 232.719 44.45 230.286 44.45ZM230.286 37.7C231.853 37.7 233.153 37.3667 234.186 36.7C235.219 36.0333 236.003 35.1 236.536 33.9C237.103 32.7 237.386 31.3667 237.386 29.9C237.386 28.3333 237.103 26.9667 236.536 25.8C235.969 24.6 235.153 23.65 234.086 22.95C233.053 22.25 231.786 21.9 230.286 21.9C228.819 21.9 227.553 22.25 226.486 22.95C225.419 23.65 224.603 24.6 224.036 25.8C223.503 26.9667 223.236 28.3333 223.236 29.9C223.236 31.3667 223.503 32.7 224.036 33.9C224.569 35.1 225.369 36.0333 226.436 36.7C227.503 37.3667 228.786 37.7 230.286 37.7Z" fill="#DBD2EF"/>
<defs>
<clipPath id="clip0_87_398">
<rect width="55.3506" height="50" fill="white" transform="translate(16)"/>
</clipPath>
</defs>
</svg>
